<svg width="19.000000" height="15.000000" viewBox="0 0 19 15" fill="none" xmlns="http://www.w3.org/2000/svg" xmlns:xlink="http://www.w3.org/1999/xlink">
	<desc>
			Created with Pixso.
	</desc>
	<defs/>
	<path id="Vector" d="M17.78 7.53L11.03 14.28C10.88 14.42 10.69 14.5 10.5 14.5C10.3 14.5 10.11 14.42 9.96 14.28C9.82 14.13 9.74 13.94 9.74 13.75C9.74 13.55 9.82 13.36 9.96 13.21L15.43 7.75L0.75 7.75C0.55 7.75 0.36 7.67 0.21 7.53C0.07 7.38 0 7.19 0 7C0 6.8 0.07 6.61 0.21 6.46C0.36 6.32 0.55 6.25 0.75 6.25L15.43 6.25L9.96 0.78C9.82 0.63 9.74 0.44 9.74 0.25C9.74 0.05 9.82 -0.14 9.96 -0.29C10.11 -0.43 10.3 -0.51 10.5 -0.51C10.69 -0.51 10.88 -0.43 11.03 -0.29L17.78 6.46C17.85 6.53 17.9 6.62 17.94 6.71C17.98 6.8 18 6.9 18 7C18 7.09 17.98 7.19 17.94 7.28C17.9 7.37 17.85 7.46 17.78 7.53Z" fill="#101112" fill-opacity="1.000000" fill-rule="nonzero"/>
</svg>
