<svg width="18.000000" height="15.000000" viewBox="0 0 18 15" fill="none" xmlns="http://www.w3.org/2000/svg" xmlns:xlink="http://www.w3.org/1999/xlink">
	<desc>
			Created with Pixso.
	</desc>
	<defs/>
	<path id="Vector" d="M18 7C18 7.19 17.92 7.38 17.78 7.53C17.63 7.67 17.44 7.75 17.25 7.75L2.56 7.75L8.03 13.21C8.1 13.28 8.15 13.37 8.19 13.46C8.23 13.55 8.25 13.65 8.25 13.75C8.25 13.84 8.23 13.94 8.19 14.03C8.15 14.12 8.1 14.21 8.03 14.28C7.96 14.35 7.87 14.4 7.78 14.44C7.69 14.48 7.59 14.5 7.5 14.5C7.4 14.5 7.3 14.48 7.21 14.44C7.12 14.4 7.03 14.35 6.96 14.28L0.21 7.53C0.14 7.46 0.09 7.37 0.05 7.28C0.01 7.19 -0.01 7.09 -0.01 7C-0.01 6.9 0.01 6.8 0.05 6.71C0.09 6.62 0.14 6.53 0.21 6.46L6.96 -0.29C7.11 -0.43 7.3 -0.51 7.5 -0.51C7.69 -0.51 7.88 -0.43 8.03 -0.29C8.17 -0.14 8.25 0.05 8.25 0.25C8.25 0.44 8.17 0.63 8.03 0.78L2.56 6.25L17.25 6.25C17.44 6.25 17.63 6.32 17.78 6.46C17.92 6.61 18 6.8 18 7Z" fill="#101112" fill-opacity="1.000000" fill-rule="nonzero"/>
</svg>
