<svg width="13.500366" height="13.500427" viewBox="0 0 13.5004 13.5004" fill="none" xmlns="http://www.w3.org/2000/svg" xmlns:xlink="http://www.w3.org/1999/xlink">
	<desc>
			Created with Pixso.
	</desc>
	<defs/>
	<path id="Vector" d="M13.5004 0.75L13.5004 10.5C13.5004 10.6989 13.4214 10.8896 13.2808 11.0303C13.1401 11.171 12.9493 11.25 12.7504 11.25C12.5515 11.25 12.3607 11.171 12.2201 11.0303C12.0795 10.8896 12.0004 10.6989 12.0004 10.5L12.0004 2.5603L1.28101 13.2806C1.14026 13.4214 0.949463 13.5004 0.750366 13.5004C0.551392 13.5004 0.360474 13.4214 0.219849 13.2806C0.0791016 13.1399 0 12.949 0 12.75C0 12.551 0.0791016 12.3601 0.219849 12.2194L10.9401 1.5L3.00037 1.5C2.80151 1.5 2.61072 1.42096 2.47009 1.28033C2.32947 1.13965 2.25037 0.948914 2.25037 0.75C2.25037 0.551086 2.32947 0.360352 2.47009 0.219666C2.61072 0.0790405 2.80151 0 3.00037 0L12.7504 0C12.9493 0 13.1401 0.0790405 13.2808 0.219666C13.4214 0.360352 13.5004 0.551086 13.5004 0.75Z" fill="#101112" fill-opacity="1.000000" fill-rule="nonzero"/>
</svg>
